<svg xmlns="http://www.w3.org/2000/svg" viewBox="0 0 512 512" width="512" height="512">
  <!-- Purple rounded-square background -->
  <rect width="512" height="512" rx="113" fill="#7367f0"/>
  <!-- Logo paths scaled+centred: translate(61,106.42) scale(0.7456) -->
  <g transform="translate(61,106.4222) scale(0.745561)">
    <path fill-rule="evenodd" clip-rule="evenodd" d="M55.4517 16.0557C25.0817 16.0557 0.461914 40.8559 0.461914 71.4485C0.461914 253.205 146.732 400.547 327.166 400.547C357.536 400.547 382.155 375.747 382.155 345.154C382.155 314.562 357.536 289.761 327.166 289.761C207.472 289.761 110.441 192.02 110.441 71.4485C110.441 40.8559 85.8216 16.0557 55.4517 16.0557Z" fill="white"/>
    <path fill-rule="evenodd" clip-rule="evenodd" d="M418.67 55.6451C441.252 62.5899 458.862 82.4786 455.346 105.998C454.326 112.823 452.797 119.657 450.736 126.456C428.037 201.354 349.36 243.535 275.007 220.668C200.654 197.803 158.78 118.549 181.48 43.651C183.54 36.8524 186.063 30.3233 189 24.088C199.123 2.60107 224.759 -3.9887 247.341 2.95602L418.67 55.6451Z" fill="white"/>
    <path d="M412.191 265.091C412.191 295.94 437.018 320.949 467.643 320.949C498.268 320.949 523.095 295.94 523.095 265.091C523.095 234.241 498.268 209.232 467.643 209.232C437.018 209.232 412.191 234.241 412.191 265.091Z" fill="white"/>
  </g>
</svg>
